# xmcd
#
# Track frame offsets:
#	150
#	18100
#	36675
#	55175
#	74250
#	94875
#	111827
#	130812
#	149050
#	165300
#	185057
#
# Disc length: 2700 seconds
#
# Revision: 0
# Processed by: cddbd v1.4b42PL1 Copyright (c) Steve Scherf et al.
# Submitted via: EasyCDDAExtractor 4.5.0.1
#
DISCID=a00a8a0b
DTITLE=박강성 - 오리지날 Live and Love [CD2]
DYEAR=1900
DGENRE=
TTITLE0=이별 그후
TTITLE1=내일을 '慕
TTITLE2=이별없는 사랑
TTITLE3=안녕
TTITLE4=비 오던 밤 
TTITLE5=사랑의 상처
TTITLE6=안녕 (경음악)
TTITLE7=우리들은 좋은 친구야
TTITLE8=해야
TTITLE9=내 지난 시간들
TTITLE10=서로 사랑해
EXTD=
EXTT0=
EXTT1=
EXTT2=
EXTT3=
EXTT4=
EXTT5=
EXTT6=
EXTT7=
EXTT8=
EXTT9=
EXTT10=
PLAYORDER=
